<svg version="1" xmlns="http://www.w3.org/2000/svg" width="588" height="588" viewBox="0 0 441.000000 441.000000"><path d="M206.5.6c-29.5 2.3-57.1 9.7-82 21.9-86.2 42.1-135 134.9-120.9 230C18.1 351 98.4 427.7 197.9 438.1c14.2 1.5 45 .6 58.1-1.6 36.4-6.1 71.3-21.4 100-43.8 9.3-7.3 25-22.7 33.8-33.2 45.4-54.1 61.4-129.6 42.1-198.9-16.6-60-58.2-110-114.4-137.6C296.1 12.4 275.3 6 252 2.6 241.3 1 215.5-.1 206.5.6zm20 31.5c10.7 1.5 17.4 5.6 23.5 14.4 1.5 2.2 16.8 35.9 34 75 17.2 39 46.3 104.5 64.8 145.5 18.4 41 34.3 76.4 35.3 78.7l1.8 4.3h-36.7l-36.7-.1-45.4-101.2c-25-55.6-45.7-101.6-46.1-102-.5-.6-38.7 83.3-87.2 191.5l-5.2 11.8H55.1l2.9-6.3C77.9 299.7 182.4 67.1 182.7 66c.2-.9-5.8-7.7-15.7-17.5-8.8-8.8-16-16.3-16-16.7 0-1.2 67.4-.9 75.5.3z"/></svg>