<svg xmlns="http://www.w3.org/2000/svg" viewBox="0 0 1440 810" preserveAspectRatio="xMinYMin slice">
  <path fill="#212121" d="M592.7 0c-15 64-30.7 125.3-46.6 183.8 88 141.8 202.3 367 273.6 625.7h419.7C1184.5 593.7 1083 290 902.6 0h-310z" onmouseover="evt.target.setAttribute('opacity', '0.8');" onmouseout="evt.target.setAttribute('opacity','1');"/>
  <path fill="#232323" d="M546 183.8c-53.8 196.6-111.6 361-163.5 490.7 11.7 44.5 22.8 89.5 33 135h404c-71.2-258.6-185.4-484-273.5-625.7z" onmouseover="evt.target.setAttribute('opacity', '0.8');" onmouseout="evt.target.setAttribute('opacity','1');"/>
  <path fill="#272727" d="M154 0c74 180.7 161 417.4 228.4 674.5C449.7 506.3 527 279.5 592.6 0H154z" onmouseover="evt.target.setAttribute('opacity', '0.8');" onmouseout="evt.target.setAttribute('opacity','1');"/>
  <path fill="#212121" d="M154 0H0v809.5h415.6C345.6 501 241 212 154 0z" onmouseover="evt.target.setAttribute('opacity', '0.8');" onmouseout="evt.target.setAttribute('opacity','1');"/>
  <path fill="#232322" d="M1144.2 501.5c52.6-134.5 101.5-291 134-463.3 1.3-6 2.4-12.3 3.5-18.5V19l3.5-19H902.5c105.3 169.3 183.7 343.2 241.7 501.6z" onmouseover="evt.target.setAttribute('opacity', '0.8');" onmouseout="evt.target.setAttribute('opacity','1');"/>
  <path fill="#282828" d="M1285.3 0c-2.2 12.8-4.5 25.6-7 38.2 43.2 48.2 101.3 120.8 161.7 219V0h-154.7z" onmouseover="evt.target.setAttribute('opacity', '0.8');" onmouseout="evt.target.setAttribute('opacity','1');"/>
  <path fill="#292929" d="M1278.3 38.2c-32.5 171.7-81 327.4-133.5 461.6v3.8c41 112.3 71.6 216.6 94.3 306l200.7.4V256.8c-60.3-98-118.3-170.8-161.4-218.6z" onmouseover="evt.target.setAttribute('opacity', '0.8');" onmouseout="evt.target.setAttribute('opacity','1');"/>
</svg>
